# xmcd CD database file generated by Grip 3.2.0
# 
# Track frame offsets:
#       150
#       9137
#       19322
#       34737
#       44744
#       55075
#       67761
#       90604
#       100358
#       113145
#       130156
#       146489
#       157524
#       166349
#       176300
#       186688
#       206693
#       233356
#       244880
#       255260
#       260642
# 
# Disc length: 3605 seconds
# 
# Revision: 1
# Processed by: cddbd v1.5.2PL0 Copyright (c) Steve Scherf et al.
# Submitted via: Grip 3.2.0
# 
DISCID=100e1315
DTITLE=Bon di Venezia, Anna - Anna Bon di Venezia - Sonatas from the court of
DTITLE=Bayreuth - Umbach and Consorten
DYEAR=2003
DGENRE=Classical
TTITLE0=Divertimento op.3 III - I Andantino
TTITLE1=Divertimento op.3 III - II Allegro
TTITLE2=Divertimento op.3 III - III Presto
TTITLE3=Divertimento op.3 I - I Adagio
TTITLE4=Divertimento op.3 I - II Allegro
TTITLE5=Divertimento op.3 I- III Allegretto
TTITLE6=Sonata op.1 IV - I Allegro moderato
TTITLE7=Sonata op.1 IV - II Andante
TTITLE8=Sonata op.1 IV - III Allegro assai
TTITLE9=Sonata op.2 V - I Allegro moderato
TTITLE10=Sonata op.2 V - II Adagio non molto
TTITLE11=Sonata op.2 V - III Allegro
TTITLE12=Sonata op.1 V - I Allegretto
TTITLE13=Sonata op.1 V - II Andante staccato
TTITLE14=Sonata op.1 V - III Allegro
TTITLE15=Sonata op.2 I - I Allegro
TTITLE16=Sonata op.2 I - II Andantino
TTITLE17=Sonata op.2 I - III Allegretto
TTITLE18=Divertimento op.3 II - I Andante
TTITLE19=Divertimento op.3 II - II Fuga
TTITLE20=Divertimento op.3 II - III Allegretto
EXTD=YEAR: 2003
EXTT0=
EXTT1=
EXTT2=
EXTT3=
EXTT4=
EXTT5=
EXTT6=
EXTT7=
EXTT8=
EXTT9=
EXTT10=
EXTT11=
EXTT12=
EXTT13=
EXTT14=
EXTT15=
EXTT16=
EXTT17=
EXTT18=
EXTT19=
EXTT20=
PLAYORDER=
